<?xml version="1.0" encoding="utf-8"?>
<!-- Generator: Adobe Illustrator 24.0.2, SVG Export Plug-In . SVG Version: 6.00 Build 0)  -->
<svg version="1.1" id="Layer_1" xmlns="http://www.w3.org/2000/svg" xmlns:xlink="http://www.w3.org/1999/xlink" x="0px" y="0px"
	 viewBox="0 0 150 40" style="enable-background:new 0 0 150 40;" xml:space="preserve">
<style type="text/css">
	.st0{fill:#FFD102;}
	.st1{fill:#FFFFFF;}
	.st2{fill:#414042;}
</style>
<g>
	<path class="st0" d="M131.3,0.8H18.7C8.4,0.8,0,9.2,0,19.5v1.1c0,10.3,8.4,18.7,18.7,18.7h112.7c10.3,0,18.7-8.4,18.7-18.7v-1.1
		C150,9.2,141.6,0.8,131.3,0.8"/>
	<path class="st1" d="M114.2,20.4c0,8-6.5,14.5-14.5,14.5H19.4c-8,0-14.5-6.5-14.5-14.5v-0.8c0-8,6.5-14.5,14.5-14.5h80.3
		c8,0,14.5,6.5,14.5,14.5V20.4z"/>
	<g>
		<path class="st1" d="M122.1,22.9c0,0.9-0.8,1.6-1.6,1.6c-0.9,0-1.6-0.8-1.6-1.6c0-0.9,0.7-1.6,1.6-1.6
			C121.3,21.2,122.1,22,122.1,22.9"/>
		<path class="st1" d="M131.7,15.3c-0.6,0.1-1.3,0.2-2.3,0.2c1.2,0.5,1.8,1.2,1.8,2.5c0,1.9-1.5,3.2-4,3.2c-0.4,0-0.8,0-1.1-0.1
			c-0.2,0.1-0.3,0.3-0.3,0.5c0,0.3,0.1,0.6,1.1,0.6h1.5c2.2,0,3.7,1.2,3.7,2.8c0,2-1.8,3.2-5.1,3.2c-3.3,0-4.3-1-4.6-2.5
			c0-0.3,0.2-0.5,0.5-0.5h1.6c0.2,0,0.4,0.1,0.5,0.4c0.1,0.6,0.6,0.8,2.1,0.8c1.7,0,2.1-0.5,2.1-1.1c0-0.6-0.4-0.9-1.4-0.9h-1.4
			c-2.1,0-3-0.9-3-1.9c0-0.7,0.5-1.4,1.1-1.8c-1.2-0.7-1.7-1.5-1.7-2.7c0-2.2,1.7-3.5,4.2-3.5c1.8,0,3-0.4,4-1
			c0.3-0.1,0.6,0,0.7,0.3l0.3,1.1C132.2,14.9,132,15.2,131.7,15.3 M125.6,17.7c0,1.1,0.6,1.6,1.5,1.6c0.9,0,1.4-0.6,1.4-1.7
			c0-1.1-0.5-1.6-1.4-1.6C126.2,16.1,125.6,16.8,125.6,17.7"/>
		<path class="st1" d="M141.3,20.2h-6c0.2,1.7,1,2.2,2.2,2.2c0.6,0,1.2-0.2,1.9-0.6c0.2-0.1,0.5-0.1,0.7,0.1l0.6,0.8
			c0.2,0.2,0.1,0.6-0.1,0.7c-0.9,0.6-2,1-3.3,1c-3.2,0-4.8-2.1-4.8-5.1c0-2.9,1.6-5.2,4.5-5.2c2.7,0,4.4,1.8,4.4,4.9
			C141.4,19.5,141.4,19.9,141.3,20.2 M138.6,18.4c0-1.3-0.4-2.2-1.6-2.2c-1,0-1.5,0.6-1.6,2.3h3.2V18.4z"/>
	</g>
	<g>
		<path class="st2" d="M105.4,24.4c0.1,0.2,0,0.5-0.2,0.7c-0.7,0.4-1.6,0.6-2.4,0.6c-2.3,0-3.5-1.3-3.5-3.8v-4.9h-1
			c-0.3,0-0.5-0.2-0.5-0.5v-1.2c0-0.3,0.2-0.5,0.5-0.5h1v-1.8c0-0.3,0.2-0.5,0.5-0.5l2.1-0.2c0.3,0,0.5,0.2,0.5,0.5v2.1h1.9
			c0.3,0,0.5,0.3,0.5,0.6l-0.2,1.2c0,0.2-0.3,0.4-0.5,0.4h-1.6v4.8c0,1,0.3,1.4,1,1.4c0.2,0,0.5,0,0.7-0.1c0.3-0.1,0.5,0,0.6,0.2
			L105.4,24.4z"/>
		<path class="st2" d="M28.2,17.6v7.2c0,0.3-0.2,0.5-0.5,0.5h-2.1c-0.3,0-0.5-0.2-0.5-0.5v-6.6c0-1.1-0.4-1.4-0.9-1.4
			c-0.6,0-1.1,0.5-1.6,1.4v6.7c0,0.3-0.3,0.5-0.5,0.5h-2.2c-0.3,0-0.5-0.2-0.5-0.5v-6.6c0-1.1-0.4-1.4-0.9-1.4
			c-0.6,0-1.1,0.5-1.6,1.4v6.7c0,0.3-0.2,0.5-0.5,0.5h-2.2c-0.3,0-0.5-0.2-0.5-0.5v-9.5c0-0.3,0.3-0.5,0.5-0.5h1.8
			c0.3,0,0.4,0.2,0.5,0.4l0.2,0.8c0.8-1.1,1.8-1.6,3-1.6c1.2,0,2.1,0.6,2.5,1.6c0.8-1.1,1.8-1.6,3.1-1.6
			C27.1,14.4,28.2,15.6,28.2,17.6"/>
		<path class="st2" d="M55.4,17.6v7.2c0,0.3-0.2,0.5-0.5,0.5h-2.1c-0.3,0-0.5-0.2-0.5-0.5v-6.6c0-1.1-0.4-1.4-0.9-1.4
			c-0.6,0-1.1,0.5-1.6,1.4v6.7c0,0.3-0.3,0.5-0.5,0.5h-2.2c-0.3,0-0.5-0.2-0.5-0.5v-6.6c0-1.1-0.4-1.4-0.9-1.4
			c-0.6,0-1.1,0.5-1.6,1.4v6.7c0,0.3-0.2,0.5-0.5,0.5h-2.2c-0.3,0-0.5-0.2-0.5-0.5v-9.5c0-0.3,0.3-0.5,0.5-0.5h1.8
			c0.3,0,0.4,0.2,0.5,0.4L44,16c0.8-1.1,1.8-1.6,3-1.6c1.2,0,2.1,0.6,2.5,1.6c0.8-1.1,1.8-1.6,3.1-1.6
			C54.3,14.4,55.4,15.6,55.4,17.6"/>
		<path class="st2" d="M36.3,25.3c-0.8,2.5-2.4,4-5.4,4.3c-0.3,0-0.5-0.1-0.6-0.4l-0.2-1.2c0-0.3,0.1-0.5,0.4-0.5
			c1.4-0.3,2.2-0.7,2.7-1.6c-0.3-0.1-0.8-0.6-0.9-1l-2.9-9.4c-0.1-0.3,0.1-0.7,0.5-0.7h2.2c0.3,0,0.4,0.2,0.5,0.4l1.8,8.1l2-8.1
			c0-0.2,0.3-0.4,0.5-0.4H39c0.3,0,0.6,0.3,0.5,0.7L36.3,25.3z"/>
		<path class="st2" d="M97.1,19.8c0-3.4-1.8-5.4-4.9-5.4c-3.2,0-4.9,2.5-4.9,5.6c0,3.3,1.8,5.5,5.3,5.5c1.4,0,2.5-0.4,3.4-1l0,0l0,0
			c0,0,0.1,0,0.1-0.1c0,0,0.1-0.1,0.1-0.1c0.2-0.2,0.3-0.5,0.1-0.7l-0.7-1c-0.3-0.3-0.6-0.2-0.6-0.2c-0.1,0.1-0.3,0.2-0.4,0.2
			c-0.6,0.3-1.2,0.5-1.8,0.5c-1.3,0-2.2-0.5-2.4-2.4H97C97.1,20.6,97.1,20.1,97.1,19.8z M94,19h-3.5c0.1-1.9,0.8-2.6,1.8-2.6
			c1.2,0,1.7,1,1.7,2.4V19z"/>
		<path class="st2" d="M66.8,23.9l-0.4,1.3c-0.1,0.2-0.3,0.4-0.5,0.3c-1-0.1-1.7-0.5-2.1-1.5c-0.8,1.2-1.9,1.6-3.2,1.6
			c-2.1,0-3.4-1.4-3.4-3.3c0-2.3,1.7-3.5,4.9-3.5h1.1v-0.5c0-1.2-0.5-1.6-1.8-1.6c-0.6,0-1.4,0.1-2.3,0.4c-0.3,0.1-0.5-0.1-0.6-0.3
			l-0.4-1.1c-0.1-0.3,0-0.5,0.3-0.6c1.2-0.4,2.4-0.6,3.5-0.6c3,0,4.4,1.3,4.4,3.7v4.1c0,0.6,0.1,0.9,0.4,1.1
			C66.8,23.4,66.9,23.7,66.8,23.9 M63.1,22.3v-1.9h-0.8c-1.4,0-2.1,0.5-2.1,1.5c0,0.8,0.5,1.3,1.2,1.3C62.2,23.3,62.8,23,63.1,22.3"
			/>
		<path class="st2" d="M75.2,14.5L75.2,14.5L75.2,14.5c-0.1,0-0.1,0-0.1,0c-0.1,0-0.3,0-0.4,0c-1.2,0-2.2,0.9-2.7,2.3l-0.2-1.3h0
			l0-0.1l0-0.1c0-0.3-0.3-0.5-0.6-0.5h-0.6h-0.5h-0.7c-0.3,0-0.5,0.2-0.5,0.5l0,0.2h0v9h0v0.1l0,0.1c0,0.3,0.2,0.5,0.5,0.5h2.1
			c0.3,0,0.5-0.2,0.5-0.5l0-0.2h0V20c0.4-1.6,0.9-2.5,2.2-2.5c0.1,0,0.3,0,0.4,0c0,0,0,0,0,0l0.1,0l0,0l0,0c0.2,0,0.5-0.2,0.5-0.4
			l0.3-2C75.7,14.7,75.4,14.5,75.2,14.5z"/>
		<g>
			<path class="st2" d="M80.1,10.9L80.1,10.9l0-0.1c0-0.3-0.3-0.5-0.5-0.5l-2.1,0.2c-0.3,0-0.5,0.3-0.5,0.5v0l0,0v0.1l0-0.1v13.4
				l0,0v0.1l0,0.1c0,0.3,0.2,0.5,0.5,0.5h2.1c0.3,0,0.5-0.2,0.5-0.5l0-0.1l0,0V10.9z"/>
			<path class="st2" d="M86.6,24.8L86.6,24.8l-3.1-5.4l2.9-4.1l0-0.1c0.1-0.2,0.1-0.4-0.2-0.4h-2.3c-0.3,0-0.6,0.2-0.7,0.4l-2.9,4.4
				l2.8,5.2c0.2,0.3,0.5,0.5,0.8,0.5h2.5C86.6,25.3,86.7,25,86.6,24.8z"/>
		</g>
	</g>
</g>
</svg>


